<svg width="22" height="23" viewBox="0 0 22 23" fill="none" xmlns="http://www.w3.org/2000/svg">
<rect y="0.5" width="22" height="22" rx="3" fill="#FEF27A"/>
<path d="M2.3824 6.8824C2.62732 6.63755 2.95947 6.5 3.30579 6.5C3.65211 6.5 3.98425 6.63755 4.22918 6.8824L10.6942 13.3474L17.1592 6.8824C17.4056 6.64449 17.7355 6.51284 18.0779 6.51582C18.4204 6.5188 18.748 6.65615 18.9901 6.89831C19.2323 7.14046 19.3696 7.46804 19.3726 7.81049C19.3756 8.15294 19.2439 8.48285 19.006 8.72918L11.6176 16.1176C11.3727 16.3625 11.0405 16.5 10.6942 16.5C10.3479 16.5 10.0157 16.3625 9.77082 16.1176L2.3824 8.72918C2.13755 8.48425 2 8.15211 2 7.80579C2 7.45947 2.13755 7.12732 2.3824 6.8824Z" fill="#242529"/>
</svg>
