<svg width="162" height="165" viewBox="0 0 162 165" fill="none" xmlns="http://www.w3.org/2000/svg">
<g filter="url(#filter0_i_65_252)">
<mask id="path-1-inside-1_65_252" fill="white">
<path d="M148.416 90.4542C157.247 91.5199 163.691 99.6284 160.933 108.085C156.62 121.304 149.007 133.306 138.7 142.897C124.435 156.171 105.933 163.967 86.4697 164.904C67.0069 165.842 47.8404 159.86 32.3656 148.019C16.8908 136.178 6.10666 119.242 1.92354 100.211C-2.25959 81.1801 0.42837 61.2826 9.51123 44.0437C18.5941 26.8047 33.4855 13.3371 51.5475 6.02651C69.6095 -1.28404 89.6761 -1.96557 108.193 4.10265C121.571 8.48702 133.516 16.1905 142.974 26.3827C149.025 32.9028 146.575 42.9664 139.005 47.6371V47.6371C131.435 52.3078 121.625 49.6775 114.808 43.9629C109.936 39.8781 104.296 36.7228 98.161 34.7124C86.8743 31.0135 74.6425 31.4289 63.6327 35.8851C52.6229 40.3413 43.5457 48.5506 38.0092 59.0587C32.4727 69.5668 30.8342 81.6954 33.3841 93.2959C35.934 104.896 42.5075 115.22 51.9403 122.438C61.373 129.656 73.0561 133.302 84.9198 132.73C96.7834 132.159 108.062 127.406 116.757 119.315C121.483 114.918 125.28 109.688 127.991 103.936C131.782 95.8902 139.585 89.3886 148.416 90.4542V90.4542Z"/>
</mask>
<path d="M148.416 90.4542C157.247 91.5199 163.691 99.6284 160.933 108.085C156.62 121.304 149.007 133.306 138.7 142.897C124.435 156.171 105.933 163.967 86.4697 164.904C67.0069 165.842 47.8404 159.86 32.3656 148.019C16.8908 136.178 6.10666 119.242 1.92354 100.211C-2.25959 81.1801 0.42837 61.2826 9.51123 44.0437C18.5941 26.8047 33.4855 13.3371 51.5475 6.02651C69.6095 -1.28404 89.6761 -1.96557 108.193 4.10265C121.571 8.48702 133.516 16.1905 142.974 26.3827C149.025 32.9028 146.575 42.9664 139.005 47.6371V47.6371C131.435 52.3078 121.625 49.6775 114.808 43.9629C109.936 39.8781 104.296 36.7228 98.161 34.7124C86.8743 31.0135 74.6425 31.4289 63.6327 35.8851C52.6229 40.3413 43.5457 48.5506 38.0092 59.0587C32.4727 69.5668 30.8342 81.6954 33.3841 93.2959C35.934 104.896 42.5075 115.22 51.9403 122.438C61.373 129.656 73.0561 133.302 84.9198 132.73C96.7834 132.159 108.062 127.406 116.757 119.315C121.483 114.918 125.28 109.688 127.991 103.936C131.782 95.8902 139.585 89.3886 148.416 90.4542V90.4542Z" stroke="#36363E" stroke-width="60" stroke-linecap="round" stroke-linejoin="round" stroke-dasharray="60 120 180 240" mask="url(#path-1-inside-1_65_252)"/>
</g>
<defs>
<filter id="filter0_i_65_252" x="-0.00012207" y="0" width="161.578" height="169" filterUnits="userSpaceOnUse" color-interpolation-filters="sRGB">
<feFlood flood-opacity="0" result="BackgroundImageFix"/>
<feBlend mode="normal" in="SourceGraphic" in2="BackgroundImageFix" result="shape"/>
<feColorMatrix in="SourceAlpha" type="matrix" values="0 0 0 0 0 0 0 0 0 0 0 0 0 0 0 0 0 0 127 0" result="hardAlpha"/>
<feMorphology radius="2" operator="erode" in="SourceAlpha" result="effect1_innerShadow_65_252"/>
<feOffset dy="4"/>
<feGaussianBlur stdDeviation="10"/>
<feComposite in2="hardAlpha" operator="arithmetic" k2="-1" k3="1"/>
<feColorMatrix type="matrix" values="0 0 0 0 0 0 0 0 0 0 0 0 0 0 0 0 0 0 0.25 0"/>
<feBlend mode="normal" in2="shape" result="effect1_innerShadow_65_252"/>
</filter>
</defs>
</svg>
