<svg width="165" height="165" viewBox="0 0 165 165" fill="none" xmlns="http://www.w3.org/2000/svg">
<mask id="path-1-inside-1_65_249" fill="white">
<path d="M165 82.5C165 128.063 128.063 165 82.5 165C36.9365 165 0 128.063 0 82.5C0 36.9365 36.9365 0 82.5 0C128.063 0 165 36.9365 165 82.5ZM32.2116 82.5C32.2116 110.274 54.7265 132.788 82.5 132.788C110.274 132.788 132.788 110.274 132.788 82.5C132.788 54.7265 110.274 32.2116 82.5 32.2116C54.7265 32.2116 32.2116 54.7265 32.2116 82.5Z"/>
</mask>
<path d="M165 82.5C165 128.063 128.063 165 82.5 165C36.9365 165 0 128.063 0 82.5C0 36.9365 36.9365 0 82.5 0C128.063 0 165 36.9365 165 82.5ZM32.2116 82.5C32.2116 110.274 54.7265 132.788 82.5 132.788C110.274 132.788 132.788 110.274 132.788 82.5C132.788 54.7265 110.274 32.2116 82.5 32.2116C54.7265 32.2116 32.2116 54.7265 32.2116 82.5Z" stroke="#242529" stroke-width="60" stroke-linecap="round" stroke-linejoin="round" stroke-dasharray="60 120 180 240" mask="url(#path-1-inside-1_65_249)"/>
</svg>
