<svg width="24" height="23" viewBox="0 0 24 23" fill="none" xmlns="http://www.w3.org/2000/svg">
<rect width="24" height="22.7094" rx="2.58055" fill="#FEF27A"/>
<path d="M13.7653 8.68624C13.9441 8.86582 14.0786 9.08458 14.1581 9.32518L14.4151 10.1148C14.4367 10.1756 14.4766 10.2281 14.5293 10.2653C14.582 10.3025 14.6448 10.3224 14.7093 10.3224C14.7738 10.3224 14.8367 10.3025 14.8893 10.2653C14.942 10.2281 14.9819 10.1756 15.0035 10.1148L15.2605 9.32518C15.3404 9.08507 15.4752 8.86691 15.6542 8.68806C15.8332 8.50922 16.0515 8.37464 16.2917 8.29503L17.0814 8.03852C17.1421 8.01691 17.1946 7.97704 17.2318 7.92436C17.269 7.87169 17.2889 7.8088 17.2889 7.74434C17.2889 7.67987 17.269 7.61699 17.2318 7.56432C17.1946 7.51164 17.1421 7.47177 17.0814 7.45016L17.0659 7.44603L16.2757 7.18952C16.0355 7.10991 15.8172 6.97533 15.6382 6.79648C15.4592 6.61764 15.3244 6.39948 15.2445 6.15937L14.988 5.36972C14.9666 5.30875 14.9269 5.25592 14.8742 5.21855C14.8215 5.18118 14.7584 5.1611 14.6938 5.1611C14.6292 5.1611 14.5662 5.18118 14.5135 5.21855C14.4608 5.25592 14.421 5.30875 14.3996 5.36972L14.1426 6.15937L14.1359 6.17898C14.0557 6.41311 13.9232 6.62584 13.7483 6.80097C13.5735 6.97609 13.3609 7.10899 13.1269 7.18952L12.3373 7.44603C12.2765 7.46764 12.224 7.50751 12.1868 7.56019C12.1496 7.61286 12.1297 7.67574 12.1297 7.74021C12.1297 7.80468 12.1496 7.86756 12.1868 7.92023C12.224 7.97291 12.2765 8.01278 12.3373 8.03439L13.1269 8.2909C13.3679 8.37141 13.5863 8.50663 13.7653 8.68624ZM18.2297 10.5076L18.7035 10.6614L18.7133 10.6635C18.75 10.6762 18.7818 10.7 18.8043 10.7316C18.8268 10.7633 18.8389 10.8011 18.8389 10.84C18.8389 10.8788 18.8268 10.9166 18.8043 10.9483C18.7818 10.9799 18.75 11.0037 18.7133 11.0165L18.239 11.1708C18.0952 11.2189 17.9645 11.2998 17.8572 11.407C17.7499 11.5142 17.669 11.6448 17.6207 11.7886L17.4664 12.2624C17.4534 12.2988 17.4295 12.3303 17.3979 12.3526C17.3663 12.3749 17.3285 12.3869 17.2899 12.3869C17.2512 12.3869 17.2135 12.3749 17.1818 12.3526C17.1502 12.3303 17.1263 12.2988 17.1134 12.2624L16.959 11.7886C16.9115 11.6441 16.8308 11.5128 16.7234 11.4051C16.6161 11.2974 16.485 11.2163 16.3407 11.1682L15.8664 11.0144C15.8298 11.0017 15.7979 10.9778 15.7754 10.9462C15.7529 10.9146 15.7408 10.8767 15.7408 10.8379C15.7408 10.7991 15.7529 10.7612 15.7754 10.7296C15.7979 10.698 15.8298 10.6741 15.8664 10.6614L16.3407 10.5071C16.4828 10.4577 16.6117 10.3763 16.7173 10.2692C16.8229 10.1621 16.9024 10.0321 16.9497 9.88929L17.1041 9.4155C17.117 9.37906 17.141 9.34752 17.1726 9.32522C17.2042 9.30292 17.2419 9.29095 17.2806 9.29095C17.3193 9.29095 17.357 9.30292 17.3886 9.32522C17.4202 9.34752 17.4441 9.37906 17.4571 9.4155L17.6109 9.88929C17.6588 10.0333 17.7398 10.1642 17.8472 10.2714C17.9546 10.3787 18.0856 10.4599 18.2297 10.5076ZM10.4607 6.96605C10.7707 6.77469 11.1234 6.66355 11.4871 6.64265C11.8507 6.62174 12.2139 6.69173 12.5437 6.84631L12.1747 6.96811C12.0096 7.02319 11.8667 7.12996 11.767 7.27261C11.6666 7.41157 11.6126 7.57862 11.6126 7.75002C11.6126 7.92142 11.6666 8.08846 11.767 8.22742C11.8635 8.36832 12.0028 8.47515 12.1644 8.53192L12.9695 8.78998C13.1305 8.84675 13.2766 8.9381 13.3979 9.05835C13.4319 9.09173 13.4629 9.12786 13.4908 9.16674C13.5689 9.26524 13.6284 9.37718 13.6663 9.49705L13.9243 10.2867C13.9824 10.4516 14.0884 10.5954 14.2288 10.6996C14.37 10.7968 14.5374 10.8488 14.7088 10.8488C14.8802 10.8488 15.0476 10.7968 15.1888 10.6996L15.2559 10.6428C15.2361 10.7063 15.2258 10.7724 15.2254 10.8389C15.227 10.9845 15.2719 11.1264 15.3545 11.2467C15.4377 11.3656 15.5572 11.4543 15.6951 11.4996L16.1802 11.6595C16.2465 11.6812 16.3067 11.7184 16.3557 11.7679L16.3624 11.7741L12.8136 14.0951C12.4568 14.3284 12.0396 14.4527 11.6132 14.4527C11.1868 14.4527 10.7696 14.3284 10.4127 14.0951L5.93545 11.1677V14.3227C5.93545 14.4253 5.89467 14.5238 5.82208 14.5964C5.74949 14.669 5.65103 14.7098 5.54837 14.7098C5.44571 14.7098 5.34725 14.669 5.27466 14.5964C5.20207 14.5238 5.16129 14.4253 5.16129 14.3227V10.5809C5.16129 10.5585 5.16301 10.537 5.16645 10.5164C5.15365 10.4404 5.16381 10.3624 5.19563 10.2922C5.22744 10.2221 5.27945 10.163 5.34502 10.1226L10.4607 6.96605ZM7.48378 13.1047L9.98846 14.7423C10.4713 15.058 11.0357 15.2262 11.6127 15.2262C12.1896 15.2262 12.754 15.058 13.2369 14.7423L15.7415 13.1052V15.6129C15.7415 15.7673 15.6579 15.8602 15.5593 15.9567C15.5103 16.0042 15.4401 16.0702 15.3483 16.1487C15.0998 16.3607 14.8339 16.5515 14.5534 16.719C13.866 17.1319 12.8622 17.5484 11.6127 17.5484C10.3637 17.5484 9.35932 17.1319 8.67186 16.719C8.39142 16.5515 8.12555 16.3607 7.87706 16.1487C7.80457 16.0869 7.734 16.0228 7.66545 15.9567C7.56739 15.8602 7.48378 15.7673 7.48378 15.6129V13.1047Z" fill="#36363E"/>
</svg>
