<svg width="22" height="22" viewBox="0 0 22 22" fill="none" xmlns="http://www.w3.org/2000/svg">
<rect width="22" height="22" rx="3" fill="#FEF27A"/>
<path d="M18.9902 15.6176C18.7452 15.8625 18.4131 16 18.0668 16C17.7204 16 17.3883 15.8625 17.1434 15.6176L10.6783 9.15257L4.21331 15.6176C3.96699 15.8555 3.63707 15.9872 3.29462 15.9842C2.95218 15.9812 2.6246 15.8438 2.38244 15.6017C2.14029 15.3595 2.00293 15.032 1.99996 14.6895C1.99698 14.3471 2.12862 14.0171 2.36653 13.7708L9.75496 6.3824C9.99988 6.13755 10.332 6 10.6783 6C11.0247 6 11.3568 6.13755 11.6017 6.3824L18.9902 13.7708C19.235 14.0157 19.3726 14.3479 19.3726 14.6942C19.3726 15.0405 19.235 15.3727 18.9902 15.6176Z" fill="#242529"/>
</svg>
